<?xml version="1.0" encoding="UTF-8"?>
<svg id="Camada_1" data-name="Camada 1" xmlns="http://www.w3.org/2000/svg" xmlns:xlink="http://www.w3.org/1999/xlink" viewBox="0 0 287.59 71.79">
  <defs>
    <style>
      .cls-1 {
        fill: url(#Gradiente_sem_nome);
      }

      .cls-2 {
        fill: url(#Gradiente_sem_nome_3);
      }

      .cls-3 {
        fill: url(#Gradiente_sem_nome_2);
      }

      .cls-4 {
        fill: none;
      }

      .cls-5 {
        fill: #373435;
        stroke: #373435;
        stroke-miterlimit: 10;
        stroke-width: .75px;
      }
    </style>
    <linearGradient id="Gradiente_sem_nome" data-name="Gradiente sem nome" x1="28538.86" y1="-18400.74" x2="31916.13" y2="-18400.74" gradientTransform="translate(-800 -486.59) scale(.03 -.03)" gradientUnits="userSpaceOnUse">
      <stop offset="0" stop-color="#0568ea"/>
      <stop offset="1" stop-color="#08b5f7"/>
    </linearGradient>
    <linearGradient id="Gradiente_sem_nome_2" data-name="Gradiente sem nome 2" x1="29855.86" y1="-18882.07" x2="31065.25" y2="-18882.07" gradientTransform="translate(-800 -486.59) scale(.03 -.03)" gradientUnits="userSpaceOnUse">
      <stop offset="0" stop-color="#0568ea"/>
      <stop offset="1" stop-color="#08b5f7"/>
    </linearGradient>
    <linearGradient id="Gradiente_sem_nome_3" data-name="Gradiente sem nome 3" x1="29309.74" y1="-18600.59" x2="30398.58" y2="-18600.59" gradientTransform="translate(-800 -486.59) scale(.03 -.03)" gradientUnits="userSpaceOnUse">
      <stop offset="0" stop-color="#0568ea"/>
      <stop offset="1" stop-color="#08b5f7"/>
    </linearGradient>
  </defs>
  <g id="Camada_1-2" data-name="Camada_1">
    <g id="_2676935721536" data-name=" 2676935721536">
      <path class="cls-1" d="m70.36,60.61c.37.2.67.13.95.13,5.33,0,10.66-.08,15.99.03,8.22.16,14.4-7.02,14.38-14.07-.02-5.82-2.44-10.43-7.58-13.53-.82-.49-1.72-.83-2.64-1.11-1.73-.54-2.62-1.64-2.73-3.44-.32-5.29-2.45-9.8-6.29-13.49-3.67-3.52-8.12-5.45-13.26-5.88-9.13-.77-17.38,4.42-20.88,11.91-.34.73-.58,1.51-.86,2.27-.33.88-.51.95-1.3.39-1.47-1.04-2.99-2.01-4.73-2.59-4.61-1.55-8.89-1.12-12.57,2.24-1.62,1.47-2.72,3.26-3.07,5.45-.1.62.07.9.75.96.95.1,1.9.25,2.83.46,1.2.27,1.86,1.28,1.65,2.39-.23,1.23-1.1,1.89-2.4,1.76-.58-.06-1.16-.18-1.73-.29-5.26-.98-10.18,1.83-12.78,5.92-5.5,8.67.64,19.61,10.46,20.54,2.27.22,4.58.07,6.87.08,1.81,0,3.62-.03,5.44.01.7.02,1.2-.21,1.67-.71,5.17-5.45,10.34-10.89,15.53-16.31,5.59-5.85,11.19-11.69,16.78-17.52.29-.3.58-.62.92-.87.83-.62,1.95-.62,2.76-.05.77.55.99,1.41.63,2.45-.23.66-.69,1.17-1.16,1.67-6.74,7.04-13.5,14.07-20.23,21.12-4.02,4.21-8.03,8.44-12.02,12.67-1.19,1.26-2.52,1.91-4.35,1.85-3.7-.12-7.41-.01-11.11-.04-9.22-.07-16.75-6.37-18.26-15.26-1.46-8.58,3.99-17.05,12.53-19.42.61-.17.86-.4.91-1.04.57-6.69,6.17-12.1,13.11-12.98,3.24-.41,6.37.08,9.34,1.45,1,.46.98.42,1.56-.51,4.37-6.96,10.63-11.18,18.97-12.11,8.48-.94,15.8,1.58,21.68,7.71,3.78,3.94,5.99,8.65,6.66,14.02.1.84.41,1.28,1.27,1.61,4.55,1.78,7.77,4.98,9.8,9.29,3.04,6.44,2.96,12.86-1,18.89-3.61,5.5-8.91,8.32-15.65,8.34-8.8.03-17.59.01-26.39,0-.23,0-.55.13-.67-.1-.15-.29.21-.44.37-.62,5.94-6.27,11.89-12.54,17.84-18.8,1.71-1.8,3.41-3.59,5.14-5.36,1.17-1.2,2.68-1.2,3.61-.05.73.89.65,2.03-.29,3.06-1.22,1.34-2.49,2.65-3.74,3.97-4.13,4.36-8.26,8.72-12.39,13.09-.11.11-.2.23-.35.41h0Z"/>
      <path class="cls-3" d="m50.13,65.02c-.8,0-1.6,0-2.4,0-.18,0-.41.05-.51-.13-.13-.23.09-.39.22-.54.85-.9,1.7-1.8,2.56-2.69,6.72-7.02,13.45-14.04,20.16-21.07,2.33-2.44,4.63-4.91,6.93-7.37.63-.68,1.37-1.08,2.33-.94,1.69.25,2.42,2.01,1.39,3.5-.49.71-1.13,1.32-1.73,1.94-6.44,6.74-12.89,13.48-19.33,20.23-1.96,2.06-3.94,4.1-5.87,6.19-.61.66-1.26.98-2.16.88-.53-.06-1.06-.01-1.6-.01h0s0,0,0,0Z"/>
      <path class="cls-2" d="m34.08,56.47c-1.42-.03-2.36-1.32-1.93-2.69.26-.84.77-1.55,1.37-2.18,6.66-7,13.33-13.99,19.99-20.99,1.6-1.68,3.19-3.36,4.81-5.02.8-.82,2.08-.92,3-.32.85.55,1.09,1.64.61,2.73-.2.46-.5.86-.85,1.22-1.41,1.46-2.83,2.9-4.23,4.37-5.1,5.36-10.18,10.73-15.28,16.1-1.85,1.95-3.7,3.89-5.56,5.83-.53.55-1.13.96-1.94.95h0Z"/>
    </g>
    <g id="_2676936942720" data-name=" 2676936942720">
      <path class="cls-5" d="m226.31,23.39c2.02-.23,2.88,1.2,3.96,2.38,1.1,1.21,2.15,2.47,3.28,3.65.65.68.75,1.2.02,1.9-.93.9-1.76,1.91-2.77,3.03-2.78-3.07-5.3-5.84-7.81-8.62-.54-.6-1.02-1.24-1.89-2.3,2.04,0,3.65.14,5.21-.04h0Z"/>
      <path class="cls-5" d="m159.58,51.65c-.19.1-.38.2-.56.31-7.9-8.35-15.42-17.04-23.39-25.91v24.43h-5.16V16.01c1.87-.46,3.23-.27,4.55,1.28,5.93,6.98,11.99,13.86,18,20.77.39.44.81.85,1.22,1.28.14-.04.28-.08.42-.12v-22.59h4.92v35.02Z"/>
      <path class="cls-5" d="m244.49,50.47c-.42-.02-.87-.59-1.21-.99-2.37-2.77-4.71-5.56-7.5-8.86-.51.78-.83,1.42-1.28,1.94-2.04,2.34-4.08,4.7-6.22,6.94-.52.55-1.43.94-2.2,1.01-1.6.15-3.23.05-5.26.05,2.42-2.73,4.51-5.08,6.59-7.44,5.38-6.09,10.79-12.16,16.12-18.29.94-1.09,1.9-1.63,3.35-1.52,1.45.11,2.91.02,4.89.02-4.37,4.7-8.36,8.99-12.53,13.48,3.97,4.57,7.85,9.03,11.91,13.71-2.36,0-4.5.05-6.64-.05h0Z"/>
      <path class="cls-5" d="m154.66,39.22v-22.59h4.92v35.02c-.19.1-.38.2-.56.31-7.9-8.35-15.42-17.04-23.39-25.91v24.43h-5.16V16.01c1.87-.46,3.23-.27,4.55,1.28,5.93,6.98,11.99,13.86,18.01,20.77.39.44.81.85,1.22,1.28.14-.04.28-.08.42-.12h0Z"/>
      <path class="cls-5" d="m215.12,34.64c-.1-4.64-3.52-7.45-8.64-7.37-4.78.08-7.67,4.4-7.41,7.37h16.05Zm-16.4,4.56c.71,3.74,2.57,6.1,5.89,7.16,4.11,1.31,7.76.64,10.76-2.98,1.3.98,2.58,1.95,4.2,3.16-1.38,1.13-2.5,2.34-3.86,3.12-4.39,2.5-9.04,2.75-13.71.88-6.05-2.42-9.14-7.88-8.56-14.86.52-6.31,4.65-11.32,10.39-12.6,9.69-2.17,17.62,4.53,16.94,14.24-.1,1.41-.52,1.96-2.05,1.94-6-.09-12-.04-17.99-.05-.59,0-1.18,0-2.01,0h0Z"/>
      <path class="cls-5" d="m168.35,34.54h15.81c-.3-4.59-3.52-7.37-8.26-7.21-4.36.15-7.5,3.05-7.55,7.21Zm-.3,4.63c.45,3.16,1.69,5.62,4.48,6.78,4.44,1.84,8.54,1.19,12.03-2.56,1.31,1.01,2.58,1.99,3.93,3.04-3.23,3.96-7.42,5.25-12.14,5.16-6.53-.13-11.83-4.34-13.25-10.4-1.67-7.12.97-13.87,6.8-16.87,4.78-2.47,9.66-2.31,14.13.69,4.56,3.06,5.97,7.69,5.59,13-.08,1.16-.72,1.24-1.64,1.23-6-.04-11.99-.05-17.99-.06-.58,0-1.17,0-1.94,0h0Z"/>
      <path class="cls-5" d="m275.01,37.61c0-5.98-3.66-9.83-9.39-9.86-5.3-.03-9.08,3.89-9.12,9.44-.04,5.34,4.09,9.51,9.38,9.48,5.68-.03,9.13-3.45,9.13-9.05h0Zm-9.41,13.84c-8.21-.04-14.31-6.06-14.28-14.08.04-8.48,6.07-14.58,14.38-14.53,8.7.05,14.8,6.05,14.76,14.53-.03,8.49-5.99,14.13-14.87,14.08Z"/>
      <path class="cls-5" d="m251.74,23.33c-4.37,4.7-8.36,8.99-12.53,13.48,3.97,4.57,7.85,9.03,11.91,13.71-2.36,0-4.5.05-6.64-.05-.42-.02-.87-.59-1.21-.99-2.37-2.77-4.71-5.56-7.5-8.86-.51.78-.83,1.42-1.28,1.94-2.04,2.34-4.08,4.7-6.22,6.94-.53.55-1.43.94-2.2,1.01-1.6.15-3.23.05-5.26.05,2.42-2.73,4.5-5.08,6.59-7.44,5.38-6.09,10.79-12.16,16.12-18.29.94-1.09,1.9-1.63,3.35-1.52,1.45.11,2.91.02,4.89.02h0Z"/>
      <path class="cls-5" d="m230.8,34.35c-2.78-3.07-5.3-5.84-7.81-8.62-.54-.6-6.04-7.48-6.9-8.55,2.04,0,2.42-.03,4.02-.02,2.02-.23,9.09,7.43,10.17,8.61,1.1,1.21,2.15,2.47,3.28,3.65.65.68.75,1.2.02,1.9-.93.9-1.76,1.91-2.77,3.03Z"/>
    </g>
    <rect class="cls-4" width="287.59" height="71.79"/>
  </g>
</svg>